<svg width="17" height="17" viewBox="0 0 17 17" fill="none" xmlns="http://www.w3.org/2000/svg">
<path d="M6.31213 4.56831L6.38083 4.52865C7.24737 4.02836 8.2428 3.79627 9.24124 3.86173C10.2397 3.92719 11.1963 4.28727 11.9901 4.89642C12.7839 5.50557 13.3792 6.33644 13.7008 7.28395C14.0223 8.23146 14.0557 9.25304 13.7967 10.2195C13.5376 11.186 12.9978 12.0539 12.2454 12.7136C11.4931 13.3732 10.562 13.795 9.56994 13.9254C8.5779 14.0559 7.56944 13.8893 6.67211 13.4466C5.77478 13.0039 5.02887 12.3051 4.52873 11.4385" stroke="#FAA559" stroke-width="1.5" stroke-miterlimit="5" stroke-linecap="round"/>
<path d="M7.96497 5.99054L3.80229 6.90436L5.09229 2.84216L7.96497 5.99054Z" fill="#FAA559"/>
</svg>
