<svg width="19" height="22" viewBox="0 0 19 22" fill="none" xmlns="http://www.w3.org/2000/svg">
<path d="M16.5792 10.5881C17.2277 10.3224 17.5578 9.55672 17.2856 8.90876L17.5322 8.6654L17.6716 8.52792C18.2381 9.51545 17.7026 10.8173 16.5792 11.1198V10.5881ZM11.1491 1.99878L17.0066 7.77919L16.8298 7.95363L16.6436 8.13737L10.7861 2.35696L10.9629 2.18252L11.1491 1.99878ZM1.82284 11.1198C0.699511 10.8173 0.163957 9.51545 0.730505 8.52792L0.869827 8.66541L1.11643 8.90876C0.844221 9.55672 1.17433 10.3224 1.82284 10.5881V10.9345V11.1198ZM4.31423 15.6845V12.1845H4.57423H4.83423V15.6845H4.57423H4.31423ZM4.57423 16.6845H4.83423V19.4345H4.31423V16.6845H4.57423ZM4.45095 20.4345H4.83423V20.8066C4.6746 20.7183 4.5422 20.5892 4.45095 20.4345ZM5.83423 20.9345V20.4345H12.4342V20.9345H5.83423ZM13.4342 20.8066V20.4345H13.8175C13.7263 20.5892 13.5939 20.7183 13.4342 20.8066ZM15.5792 11.1845H14.9542V10.9345V10.6845H15.5792V11.1845ZM13.4342 15.6845V12.1845H13.6942H13.9542V15.6845H13.4342ZM13.9542 16.6845V19.4345H13.4342V16.6845H13.9542ZM2.82284 10.6845H3.31423V10.9345V11.1845H2.82284V10.9345V10.6845ZM10.2605 1.47075L10.0233 1.70479C9.51154 1.43174 8.89053 1.43174 8.37873 1.70479L8.14157 1.47075L8.00578 1.33675C8.73458 0.88775 9.6675 0.88775 10.3963 1.33675L10.2605 1.47075ZM7.43916 2.18252L7.61592 2.35696L1.75843 8.13737L1.57223 7.95363L1.39547 7.77919L7.25296 1.99878L7.43916 2.18252Z" fill="#828282" stroke="white"/>
</svg>
