<svg width="14" height="14" viewBox="0 0 14 14" fill="none" xmlns="http://www.w3.org/2000/svg">
<line x1="0.5" y1="13.5" x2="13.5" y2="13.5" stroke="#778192" stroke-linecap="round"/>
<path d="M1.5 8.5C1.5 8.22386 1.72386 8 2 8H3C3.27614 8 3.5 8.22386 3.5 8.5V13H1.5V8.5Z" fill="#778192"/>
<path d="M4.5 5.5C4.5 5.22386 4.72386 5 5 5H6C6.27614 5 6.5 5.22386 6.5 5.5V13H4.5V5.5Z" fill="#778192"/>
<path d="M7.5 3.5C7.5 3.22386 7.72386 3 8 3H9C9.27614 3 9.5 3.22386 9.5 3.5V13H7.5V3.5Z" fill="#778192"/>
<path d="M10.5 0.5C10.5 0.223858 10.7239 0 11 0H12C12.2761 0 12.5 0.223858 12.5 0.5V13H10.5V0.5Z" fill="#778192"/>
</svg>
