<svg width="500" height="116" viewBox="0 0 500 116" fill="none" xmlns="http://www.w3.org/2000/svg">
<g clip-path="url(#clip0)">
<path d="M112.299 12.6699H64.1194C52.3778 12.6699 42.8594 22.1883 42.8594 33.9299V82.1099C42.8594 93.8515 52.3778 103.37 64.1194 103.37H112.299C124.041 103.37 133.559 93.8515 133.559 82.1099V33.9299C133.559 22.1883 124.041 12.6699 112.299 12.6699Z" fill="url(#paint0_linear)"/>
<path d="M110.697 31.82C105.697 30.9 102.897 36.14 100.857 39.96C99.1972 43.08 97.1672 47.42 94.8572 52.87C92.3472 58.63 89.9972 64.47 88.6372 68H87.7772C86.3872 64.44 84.0572 58.6 81.5872 52.84C79.2472 47.39 77.2172 43.05 75.5872 39.93C73.5872 36.11 70.7672 30.87 65.7472 31.79C63.8272 32.14 60.6172 33.64 60.6172 39.72V84.33H71.2472V55.78C73.8472 61.78 76.6972 68.78 79.1472 75.25C79.5305 76.2648 80.2149 77.1381 81.1085 77.753C82.0022 78.3678 83.0625 78.6948 84.1472 78.69H92.3072C93.3916 78.6934 94.4512 78.3658 95.3446 77.7512C96.238 77.1365 96.9227 76.264 97.3072 75.25C99.7572 68.78 102.607 61.77 105.207 55.78V84.33H115.867V39.75C115.827 33.67 112.607 32.17 110.697 31.82Z" fill="white"/>
<path d="M252.248 45.1896V45.1096C252.248 38.7974 249.741 32.7438 245.278 28.2804C240.814 23.8171 234.761 21.3096 228.448 21.3096C222.136 21.3096 216.083 23.8171 211.619 28.2804C207.156 32.7438 204.648 38.7974 204.648 45.1096V45.2796C204.648 51.5917 207.156 57.6453 211.619 62.1087C216.083 66.5721 222.136 69.0796 228.448 69.0796C234.761 69.0796 240.814 66.5721 245.278 62.1087C249.741 57.6453 252.248 51.5917 252.248 45.2796V45.1896ZM228.438 59.1096C225.689 59.0938 223.005 58.264 220.727 56.7248C218.448 55.1857 216.677 53.0062 215.635 50.4613C214.594 47.9164 214.33 45.1201 214.876 42.4252C215.422 39.7303 216.754 37.2575 218.704 35.3187C220.654 33.38 223.134 32.0621 225.832 31.5315C228.53 31.0008 231.325 31.2811 233.864 32.337C236.403 33.3929 238.572 35.177 240.098 37.4644C241.624 39.7518 242.438 42.4399 242.438 45.1896C242.417 48.8887 240.933 52.4292 238.31 55.0374C235.687 57.6456 232.138 59.1096 228.438 59.1096Z" fill="#91D9DA"/>
<path d="M426.063 20C421.118 20 416.284 21.4662 412.173 24.2133C408.062 26.9603 404.858 30.8648 402.966 35.4329C401.073 40.0011 400.578 45.0277 401.543 49.8773C402.508 54.7268 404.889 59.1814 408.385 62.6777C411.881 66.174 416.336 68.555 421.185 69.5196C426.035 70.4843 431.061 69.9892 435.63 68.097C440.198 66.2048 444.102 63.0005 446.849 58.8893C449.596 54.778 451.063 49.9445 451.063 45C451.063 38.3696 448.429 32.0107 443.74 27.3223C439.052 22.6339 432.693 20 426.063 20ZM426.063 60.15C423.056 60.1401 420.12 59.239 417.626 57.5605C415.132 55.8821 413.192 53.5018 412.051 50.7206C410.909 47.9394 410.618 44.8822 411.214 41.9357C411.811 38.9891 413.267 36.2855 415.4 34.1668C417.533 32.048 420.246 30.6093 423.196 30.0325C426.147 29.4557 429.202 29.7667 431.975 30.9263C434.749 32.0859 437.117 34.0419 438.779 36.547C440.441 39.0521 441.322 41.9937 441.313 45C441.289 49.0271 439.671 52.8808 436.813 55.7182C433.955 58.5555 430.09 60.1454 426.063 60.14V60.15Z" fill="#91D9DA"/>
<path d="M397.39 21.3496H359.22C357.926 21.3496 356.684 21.8638 355.769 22.7789C354.854 23.6941 354.34 24.9354 354.34 26.2296C354.34 27.5239 354.854 28.7651 355.769 29.6803C356.684 30.5955 357.926 31.1096 359.22 31.1096H364.3V69.4196H374.06V31.1096H382.53V69.4196H392.29V31.1096H397.39C398.684 31.1096 399.925 30.5955 400.841 29.6803C401.756 28.7651 402.27 27.5239 402.27 26.2296C402.27 24.9354 401.756 23.6941 400.841 22.7789C399.925 21.8638 398.684 21.3496 397.39 21.3496Z" fill="#91D9DA"/>
<path d="M280.267 26.5701C275.377 23.0329 269.493 21.1323 263.457 21.1401V19.8701H253.688V69.7801H263.457V61.3601C269.493 61.3679 275.377 59.4674 280.267 55.9301C285.267 52.1601 288.147 46.8101 288.147 41.2501C288.147 35.6901 285.277 30.3401 280.267 26.5701ZM263.457 51.5701V30.9001C271.597 31.0601 278.388 35.7301 278.388 41.2501C278.388 46.7701 271.597 51.4401 263.457 51.6001V51.5701Z" fill="#91D9DA"/>
<path d="M316.881 26.5701C311.987 23.0327 306.1 21.1322 300.061 21.1401V19.8701H290.301V69.7801H300.061V61.3601C306.1 61.368 311.987 59.4675 316.881 55.9301C321.881 52.1601 324.761 46.8101 324.761 41.2501C324.761 35.6901 321.891 30.3401 316.881 26.5701ZM300.061 51.5701V30.9001C308.201 31.0601 315.001 35.7301 315.001 41.2501C315.001 46.7701 308.201 51.4401 300.061 51.6001V51.5701Z" fill="#91D9DA"/>
<path d="M338.279 32.6501C339.219 31.7401 345.389 31.8301 351.349 31.9101L351.489 22.1501C340.729 22.0001 335.329 21.9201 331.489 25.6501C327.649 29.3801 327.569 34.7701 327.409 45.5101L336.959 45.6501L327.419 45.5101C327.259 56.2601 327.189 61.6501 330.919 65.5101C334.649 69.3701 340.049 69.4201 350.809 69.5701L350.949 59.8101C344.949 59.7201 338.829 59.6401 337.949 58.7001C337.289 58.0201 337.159 54.6001 337.169 50.5001H351.519V40.7201H337.259C337.369 36.6701 337.609 33.3101 338.279 32.6501Z" fill="#91D9DA"/>
<path d="M198.05 21.0598C193.46 20.2198 190.9 25.0598 189.05 28.5198C187.53 31.3798 185.67 35.3498 183.53 40.3498C181.26 45.6298 179.13 50.9798 177.85 54.2398H177.07C175.79 50.9798 173.66 45.6298 171.4 40.3498C169.25 35.3498 167.4 31.3498 165.87 28.5198C164 25.0198 161.45 20.2198 156.87 21.0598C155.12 21.3898 152.18 22.7598 152.18 28.3298V69.1698H161.94V42.9998C164.33 48.4798 166.94 54.9098 169.18 60.8298C169.526 61.752 170.143 62.548 170.95 63.1137C171.756 63.6793 172.715 63.9882 173.7 63.9998H181.18C182.17 63.9992 183.136 63.6976 183.95 63.135C184.765 62.5724 185.389 61.7754 185.74 60.8498C188 54.9298 190.6 48.4998 193 42.9998V69.1698H202.76V28.3298C202.74 22.7598 199.8 21.3898 198.05 21.0598Z" fill="#91D9DA"/>
<path d="M152.326 100.608C152.326 100.333 152.435 100.094 152.652 99.8908C152.884 99.6734 153.058 99.5284 153.174 99.456C153.305 99.369 153.392 99.3038 153.435 99.2603C153.508 100.579 154.399 101.239 156.109 101.239C157.458 101.239 159.03 100.819 160.828 99.9778C162.103 99.398 162.959 98.8037 163.393 98.1949C163.538 98.0064 163.611 97.8542 163.611 97.7382C163.611 97.6078 163.589 97.5063 163.546 97.4338L154.522 95.4117C154.261 95.3537 154.008 95.2305 153.761 95.0421C153.312 94.7232 153.087 94.4333 153.087 94.1724C153.087 93.1722 153.797 92.2662 155.218 91.4545C156.783 90.5703 158.878 89.9035 161.502 89.4541C162.096 89.3526 162.538 89.2947 162.828 89.2802C162.915 89.3092 163.046 89.3381 163.219 89.3671C163.408 89.3816 163.596 89.4106 163.785 89.4541C164.234 89.5556 164.423 89.744 164.35 90.0194C164.35 90.5123 163.408 90.9036 161.524 91.1936C159.088 91.5559 157.566 91.8603 156.957 92.1068C156.363 92.3532 155.928 92.6069 155.653 92.8678C155.392 93.1287 155.254 93.4404 155.24 93.8027C155.24 93.8752 155.406 93.9549 155.74 94.0419C156.073 94.1289 156.472 94.2376 156.936 94.3681C157.4 94.484 158.001 94.6435 158.74 94.8464C160.538 95.3393 162.741 95.9626 165.35 96.7163C165.495 97.0352 165.568 97.3324 165.568 97.6078C165.568 98.376 165.118 99.1153 164.22 99.8256C163.205 100.623 161.799 101.297 160.001 101.848C158.508 102.297 157.32 102.522 156.436 102.522C155.696 102.522 154.993 102.391 154.327 102.13C153.66 101.869 153.16 101.616 152.826 101.369C152.493 101.123 152.326 100.869 152.326 100.608ZM170.793 99.6082C170.793 99.3762 170.771 99.0573 170.728 98.6515C170.699 98.2311 170.67 97.7745 170.641 97.2816C170.612 96.7888 170.597 96.2887 170.597 95.7814C170.597 95.274 170.641 94.8102 170.728 94.3898C170.916 93.4476 171.308 92.9765 171.902 92.9765C172.308 93.0925 172.576 93.2374 172.706 93.4114C172.851 93.5853 172.924 93.8027 172.924 94.0637C172.924 94.3101 172.859 94.6217 172.728 94.9986C172.25 96.2597 172.011 97.3976 172.011 98.4123C172.011 98.7457 172.032 99.1008 172.076 99.4777C172.308 100.449 173.105 100.934 174.468 100.934C175.178 100.934 175.852 100.811 176.49 100.565C177.707 100.116 178.534 99.5864 178.968 98.9776C179.099 98.3108 179.164 97.731 179.164 97.2382C179.164 96.7308 179.142 96.2815 179.099 95.8901C179.07 95.4987 179.026 95.0711 178.968 94.6072C178.925 94.1289 178.896 93.607 178.882 93.0417C179.07 92.9548 179.251 92.9113 179.425 92.9113C179.614 92.9113 179.802 93.0055 179.99 93.1939C180.193 93.3824 180.36 93.7375 180.49 94.2593C180.635 94.7812 180.73 95.3972 180.773 96.1075C180.817 96.8033 180.838 97.5281 180.838 98.2818C180.853 99.0356 180.86 99.7676 180.86 100.478C180.86 101.174 180.889 101.775 180.947 102.283C180.773 102.442 180.606 102.522 180.447 102.522C179.867 102.522 179.44 101.942 179.164 100.782C178.976 100.942 178.657 101.137 178.207 101.369C177.251 101.891 176.12 102.239 174.816 102.413C174.569 102.442 174.294 102.457 173.989 102.457C173.685 102.457 173.301 102.399 172.837 102.283C172.388 102.167 171.96 101.898 171.554 101.478C171.148 101.058 170.895 100.434 170.793 99.6082ZM196.892 94.5637C196.283 94.1289 195.5 93.9115 194.544 93.9115C193.645 93.9115 192.811 94.0782 192.043 94.4115C190.594 95.0204 189.601 95.8031 189.064 96.7598C188.832 97.1947 188.716 97.6585 188.716 98.1514C188.716 98.2383 188.716 98.4848 188.716 98.8906C188.716 99.282 188.789 99.8183 188.934 100.5C189.079 101.166 189.151 101.848 189.151 102.543C188.847 102.558 188.6 102.594 188.412 102.652C188.224 102.71 188.064 102.739 187.934 102.739C187.803 102.739 187.687 102.681 187.586 102.565C187.499 102.449 187.397 102.225 187.281 101.891C187.267 101.804 187.238 101.558 187.194 101.152C187.151 100.746 187.093 100.253 187.02 99.6734C186.962 99.0936 186.89 98.463 186.803 97.7817C186.73 97.086 186.658 96.4047 186.586 95.7379C186.426 94.2883 186.303 93.2229 186.216 92.5416C186.216 92.1937 186.47 92.0198 186.977 92.0198C187.281 92.0198 187.52 92.1503 187.694 92.4112C187.868 92.6576 188.006 92.9475 188.108 93.2809C188.209 93.5998 188.274 93.9187 188.303 94.2376C188.347 94.5565 188.383 94.7812 188.412 94.9116C190.325 93.2012 192.703 92.3459 195.544 92.3459C195.863 92.3459 196.196 92.3532 196.544 92.3677C196.631 92.3532 196.74 92.3459 196.87 92.3459C197.001 92.3459 197.131 92.4329 197.261 92.6069C197.421 92.8098 197.501 93.0562 197.501 93.3461C197.501 94.0709 197.298 94.4768 196.892 94.5637ZM214.989 95.2378C215.062 95.2378 215.098 95.4335 215.098 95.8249C215.098 96.2162 215.112 96.4844 215.141 96.6293L207.683 97.5426L208.075 102.37L206.314 102.283C206.314 100.978 206.169 99.4849 205.879 97.8035L203.052 98.8906C202.864 98.8906 202.704 98.7819 202.574 98.5645C202.342 98.1876 202.226 97.847 202.226 97.5426L205.531 96.3684C205.241 93.8752 205.096 91.8531 205.096 90.3021C205.096 88.7366 205.226 87.519 205.487 86.6492C205.748 85.7795 206.125 85.1997 206.618 84.9098C207.125 84.6054 207.662 84.4532 208.227 84.4532C208.792 84.4532 209.365 84.5764 209.945 84.8228C210.539 85.0692 211.104 85.3809 211.641 85.7578C212.177 86.1346 212.634 86.5623 213.01 87.0406C213.387 87.5045 213.576 87.9611 213.576 88.4104C213.576 88.7583 213.54 89.0047 213.467 89.1497C212.887 88.338 212.184 87.6132 211.358 86.9754C210.372 86.2216 209.445 85.8447 208.575 85.8447C207.749 85.8447 207.198 86.4318 206.922 87.6059C206.792 88.2147 206.727 89.0772 206.727 90.1934C206.727 91.295 206.756 92.3097 206.814 93.2374C206.872 94.1506 207.046 95.0711 207.335 95.9988C208.234 95.9988 209.242 95.9191 210.358 95.7596C212.503 95.4262 214.047 95.2523 214.989 95.2378ZM220.149 102.522C219.816 102.493 219.649 102.348 219.649 102.087C219.649 101.768 219.83 101.471 220.193 101.195C220.338 101.094 220.446 101.043 220.519 101.043C220.606 101.043 220.671 101.05 220.714 101.065C221.019 101.065 221.222 101.13 221.323 101.261C221.439 101.377 221.497 101.536 221.497 101.739C221.497 101.942 221.454 102.094 221.367 102.196C221.28 102.297 221.171 102.37 221.041 102.413C220.823 102.486 220.526 102.522 220.149 102.522ZM289.327 90.4325C288.385 89.5048 287.341 89.041 286.196 89.041C285.109 89.041 284.065 89.4541 283.065 90.2803C281.804 91.324 280.934 92.6721 280.456 94.3246C280.282 94.9189 280.195 95.4117 280.195 95.8031C280.195 96.1945 280.21 96.4989 280.239 96.7163C280.239 98.1514 280.724 99.253 281.695 100.021C282.609 100.732 283.775 101.087 285.196 101.087C287.138 100.927 289.001 100.181 290.784 98.8471C291.277 98.4703 291.799 98.1079 292.349 97.76C292.552 97.76 292.755 97.789 292.958 97.847C293.176 97.9049 293.284 98.0716 293.284 98.3471C291.849 99.5937 290.639 100.492 289.653 101.043C287.827 102.029 286.174 102.522 284.696 102.522C284.594 102.522 284.5 102.522 284.413 102.522C282.804 102.522 281.427 102.022 280.282 101.021C279.064 99.9633 278.456 98.6442 278.456 97.0642C278.456 95.8756 278.666 94.7377 279.086 93.6505C279.521 92.5634 280.108 91.6067 280.847 90.7804C281.601 89.9397 282.485 89.2729 283.5 88.7801C284.529 88.2872 285.631 88.0408 286.805 88.0408C287.805 88.0408 288.457 88.1785 288.762 88.4539C289.139 88.7873 289.327 89.4469 289.327 90.4325ZM298.727 94.0637C298.698 93.2809 298.669 92.5851 298.64 91.9763C298.611 91.353 298.589 90.8964 298.575 90.6065C298.575 90.3021 298.459 89.5701 298.227 88.4104C298.358 88.2365 298.481 88.0698 298.597 87.9103C298.727 87.7509 298.908 87.6712 299.14 87.6712C299.648 87.6712 300.039 89.8092 300.314 94.0854C300.459 96.5641 300.532 99.0428 300.532 101.522C300.532 102.188 300.068 102.522 299.14 102.522L298.966 102.5C298.966 101.746 298.945 100.782 298.901 99.6082C298.858 98.434 298.821 97.4121 298.792 96.5424C298.778 95.6726 298.756 94.8464 298.727 94.0637ZM307.801 92.2807C307.989 94.9914 308.149 98.1296 308.279 101.696C308.192 102.145 307.845 102.37 307.236 102.37C307.076 102.37 306.91 102.341 306.736 102.283C306.576 102.21 306.475 102.116 306.431 102V92.2807H307.801ZM305.779 89.3236C305.779 88.8163 306.076 88.5626 306.67 88.5626C307.062 88.5626 307.381 88.6496 307.627 88.8236C307.671 88.983 307.692 89.1425 307.692 89.3019C307.692 89.4469 307.634 89.5918 307.518 89.7368C307.402 89.8817 307.228 89.9542 306.997 89.9542C306.765 89.9542 306.533 89.9035 306.301 89.802C306.069 89.686 305.895 89.5266 305.779 89.3236ZM322.006 100.217C322.601 99.9705 323.18 99.7459 323.746 99.5429C324.311 99.34 324.847 99.2385 325.355 99.2385C325.877 99.2385 326.137 99.398 326.137 99.7169C326.137 99.7894 326.116 99.9053 326.072 100.065C326.043 100.21 325.848 100.391 325.485 100.608C325.137 100.811 324.702 101.007 324.181 101.195C323.673 101.384 323.115 101.558 322.506 101.717C321.898 101.877 321.303 102.014 320.723 102.13C319.52 102.377 318.665 102.5 318.158 102.5C317.65 102.5 317.1 102.442 316.505 102.326C315.925 102.21 315.382 102.022 314.875 101.761C313.7 101.152 313.113 100.253 313.113 99.0646C313.113 98.9776 313.113 98.8037 313.113 98.5427C313.113 98.2818 313.222 97.9122 313.439 97.4338C313.657 96.941 313.983 96.4554 314.418 95.9771C314.853 95.4842 315.36 95.0348 315.94 94.629C317.158 93.7593 318.433 93.1939 319.767 92.933C320.231 92.8315 320.615 92.7808 320.919 92.7808C321.238 92.7808 321.499 92.7881 321.702 92.8026C321.905 92.8026 322.115 92.817 322.332 92.846C322.55 92.8605 322.738 92.9113 322.898 92.9982C323.275 93.1867 323.463 93.5563 323.463 94.1071C323.463 94.455 323.217 94.7957 322.724 95.1291C322.593 95.216 322.477 95.2958 322.376 95.3682C322.303 95.0348 322.209 94.7522 322.093 94.5203C321.977 94.2883 321.724 94.1724 321.332 94.1724C319.622 94.5348 318.15 95.0783 316.918 95.8031C315.527 96.6293 314.831 97.4991 314.831 98.4123C314.831 98.5138 314.838 98.6225 314.853 98.7384C314.853 99.6661 315.208 100.326 315.918 100.717C316.455 101.007 317.143 101.152 317.984 101.152C318.839 101.152 319.578 101.058 320.202 100.869C320.825 100.666 321.426 100.449 322.006 100.217ZM333.472 98.5427L333.581 100.434C333.581 101.594 333.305 102.297 332.754 102.543C332.638 102.587 332.501 102.609 332.341 102.609C332.182 102.609 331.993 102.572 331.776 102.5L331.798 94.3681C331.798 93.1939 331.725 92.0198 331.58 90.8457C331.45 89.657 331.385 88.4757 331.385 87.3015C331.385 86.8377 331.631 86.6058 332.124 86.6058H332.298C332.399 86.6058 332.464 86.613 332.493 86.6275C332.711 87.5262 332.856 88.6134 332.928 89.889C333.088 92.7156 333.233 94.6145 333.363 95.5857C333.61 95.4552 334.16 95.0856 335.016 94.4768C335.871 93.868 336.559 93.3824 337.081 93.02C337.603 92.6431 338.096 92.2952 338.56 91.9763C339.647 91.266 340.328 90.9109 340.604 90.9109C340.836 90.9109 341.017 91.0486 341.147 91.324C340.422 92.2372 339.256 93.2519 337.647 94.3681C336.994 94.8174 336.342 95.2668 335.69 95.7161C335.052 96.151 334.465 96.6076 333.928 97.086C334.9 97.3469 335.82 97.6223 336.69 97.9122C337.56 98.1876 338.4 98.4413 339.212 98.6732C341.082 99.224 342.691 99.5357 344.039 99.6082C344.039 99.9995 344.003 100.253 343.93 100.369C343.8 100.572 343.532 100.688 343.126 100.717H342.952C342.068 100.471 340.894 100.195 339.43 99.8908C336.545 99.2965 334.559 98.8471 333.472 98.5427ZM349.417 102.522C349.083 102.493 348.916 102.348 348.916 102.087C348.916 101.768 349.098 101.471 349.46 101.195C349.605 101.094 349.714 101.043 349.786 101.043C349.873 101.043 349.938 101.05 349.982 101.065C350.286 101.065 350.489 101.13 350.591 101.261C350.707 101.377 350.765 101.536 350.765 101.739C350.765 101.942 350.721 102.094 350.634 102.196C350.547 102.297 350.438 102.37 350.308 102.413C350.091 102.486 349.793 102.522 349.417 102.522ZM418.029 103.565V99.5864C416.652 100.529 415.696 101.152 415.159 101.456C413.913 102.138 412.818 102.478 411.876 102.478C410.745 102.478 409.774 102.065 408.962 101.239C408.136 100.384 407.723 99.4052 407.723 98.3036C407.796 97.1439 408.042 95.9698 408.462 94.7812C409.332 92.259 410.774 90.4108 412.789 89.2367C413.789 88.6424 414.942 88.3452 416.246 88.3452C416.275 88.3452 416.304 88.3452 416.333 88.3452L416.92 88.3235C417.587 88.3235 417.892 88.5844 417.834 89.1062C416.674 89.1642 415.587 89.4324 414.572 89.9107C413.557 90.3891 412.673 91.0341 411.919 91.8459C411.18 92.6431 410.593 93.5781 410.158 94.6507C409.738 95.7234 409.528 96.8178 409.528 97.9339C409.528 99.0501 409.818 99.8546 410.397 100.347C410.977 100.84 411.724 101.087 412.637 101.087C413.42 101.087 414.507 100.746 415.898 100.065C416.783 99.6299 417.442 99.1371 417.877 98.5862C418.095 98.3253 418.203 98.0499 418.203 97.76V94.542C417.768 94.542 416.754 94.7087 415.159 95.0421C413.579 95.3755 412.666 95.5639 412.42 95.6074C412.347 95.5639 412.26 95.5204 412.159 95.477C412.057 95.419 411.999 95.3393 411.985 95.2378C411.956 95.0204 412.275 94.687 412.941 94.2376C413.101 94.1506 414.058 93.9839 415.811 93.7375C417.565 93.4766 418.682 93.3099 419.16 93.2374C419.638 93.1649 420.037 93.107 420.356 93.0635C420.501 93.0925 420.682 93.0925 420.899 93.0635C421.117 93.02 421.32 93.0055 421.508 93.02C421.972 93.0345 422.189 93.2881 422.16 93.781L420.356 94.5203C420.08 95.4045 419.943 97.0715 419.943 99.5212L419.986 102.761C419.986 103.051 419.986 103.319 419.986 103.565C419.551 103.783 419.131 103.892 418.725 103.892C418.319 103.892 418.087 103.783 418.029 103.565ZM427.799 98.3688C427.799 96.6583 428.538 95.2813 430.017 94.2376C431.191 93.4114 432.604 92.9113 434.257 92.7373C434.344 92.7373 434.547 92.7373 434.865 92.7373C435.184 92.7373 435.612 92.8315 436.148 93.02C437.337 93.4259 438.149 94.1434 438.584 95.1726C438.757 95.5784 438.844 95.9263 438.844 96.2162C438.844 96.4916 438.837 96.6873 438.823 96.8033C438.823 98.6152 438.134 100.043 436.757 101.087C435.482 102.043 433.887 102.522 431.974 102.522C430.597 102.522 429.553 102.203 428.843 101.565C428.147 100.927 427.799 99.8618 427.799 98.3688ZM429.299 98.8906C429.299 99.7894 429.538 100.398 430.017 100.717C430.379 100.949 430.988 101.065 431.843 101.065C432.698 101.065 433.452 101 434.104 100.869C434.757 100.739 435.337 100.514 435.844 100.195C436.931 99.4994 437.475 98.4195 437.475 96.9555C437.475 96.0858 437.243 95.3755 436.779 94.8247C436.272 94.2304 435.605 93.9332 434.778 93.9332C434.213 94.0347 433.641 94.1434 433.061 94.2593C432.495 94.3753 431.959 94.6 431.452 94.9334C430.35 95.6437 429.633 96.9627 429.299 98.8906ZM444.2 102.522C443.867 102.493 443.7 102.348 443.7 102.087C443.7 101.768 443.881 101.471 444.244 101.195C444.389 101.094 444.497 101.043 444.57 101.043C444.657 101.043 444.722 101.05 444.766 101.065C445.07 101.065 445.273 101.13 445.374 101.261C445.49 101.377 445.548 101.536 445.548 101.739C445.548 101.942 445.505 102.094 445.418 102.196C445.331 102.297 445.222 102.37 445.092 102.413C444.874 102.486 444.577 102.522 444.2 102.522Z" fill="white"/>
</g>
<defs>
<linearGradient id="paint0_linear" x1="65.7294" y1="19.0799" x2="94.3694" y2="68.6899" gradientUnits="userSpaceOnUse">
<stop stop-color="#BBE5EE" stop-opacity="0.8"/>
<stop offset="0.37" stop-color="#A7DFE6" stop-opacity="0.85"/>
<stop offset="0.99" stop-color="#72CED0"/>
<stop offset="1" stop-color="#71CED0"/>
</linearGradient>
<clipPath id="clip0">
<rect width="500" height="115.56" fill="white"/>
</clipPath>
</defs>
</svg>
