<svg width="22" height="20" viewBox="0 0 22 20" fill="none" xmlns="http://www.w3.org/2000/svg">
<path d="M0 1C0 0.447715 0.447715 0 1 0H16C16.5523 0 17 0.447715 17 1C17 1.55228 16.5523 2 16 2H2V15H8.5C8.76522 15 9.01957 15.1054 9.20711 15.2929L11 17.0858L12.7929 15.2929C12.9804 15.1054 13.2348 15 13.5 15H20V6C20 5.44772 20.4477 5 21 5C21.5523 5 22 5.44772 22 6V16C22 16.5523 21.5523 17 21 17H13.9142L11.7071 19.2071C11.3166 19.5976 10.6834 19.5976 10.2929 19.2071L8.08579 17H1C0.447715 17 0 16.5523 0 16V1Z" fill="white"/>
<path d="M9.5 8C9.5 7.44772 9.94771 7 10.5 7H11.5013C12.0535 7 12.5013 7.44772 12.5013 8C12.5013 8.55229 12.0535 9 11.5013 9H10.5C9.94771 9 9.5 8.55229 9.5 8Z" fill="white"/>
<path d="M15.5 7C14.9478 7 14.5 7.44772 14.5 8C14.5 8.55229 14.9478 9 15.5 9H16.4995C17.0518 9 17.4995 8.55229 17.4995 8C17.4995 7.44772 17.0518 7 16.4995 7H15.5Z" fill="white"/>
<path d="M4.5 8C4.5 7.44772 4.94771 7 5.5 7H6.49945C7.05173 7 7.49945 7.44772 7.49945 8C7.49945 8.55229 7.05173 9 6.49945 9H5.5C4.94771 9 4.5 8.55229 4.5 8Z" fill="white"/>
</svg>
