<svg width="16" height="12" viewBox="0 0 16 12" fill="none" xmlns="http://www.w3.org/2000/svg">
<path fill-rule="evenodd" clip-rule="evenodd" d="M14.5 1H5.5C5.22386 1 5 1.22386 5 1.5V3H10.5C11.3284 3 12 3.67157 12 4.5V8H14.5C14.7761 8 15 7.77614 15 7.5V1.5C15 1.22386 14.7761 1 14.5 1ZM12 9V10.5C12 11.3284 11.3284 12 10.5 12H1.5C0.671573 12 0 11.3284 0 10.5V4.5C0 3.67157 0.671573 3 1.5 3H4V1.5C4 0.671573 4.67157 0 5.5 0H14.5C15.3284 0 16 0.671573 16 1.5V7.5C16 8.32843 15.3284 9 14.5 9H12ZM1.5 4H10.5C10.7761 4 11 4.22386 11 4.5V5H1V4.5C1 4.22386 1.22386 4 1.5 4ZM11 10.5V6H1V10.5C1 10.7761 1.22386 11 1.5 11H10.5C10.7761 11 11 10.7761 11 10.5ZM6.5 7C6.22386 7 6 7.22386 6 7.5C6 7.77614 6.22386 8 6.5 8H9.5C9.77614 8 10 7.77614 10 7.5C10 7.22386 9.77614 7 9.5 7H6.5Z" fill="#778192"/>
</svg>
