<svg width="16" height="16" viewBox="0 0 16 16" fill="none" xmlns="http://www.w3.org/2000/svg">
<path fill-rule="evenodd" clip-rule="evenodd" d="M11 4C11 5.65685 9.65685 7 8 7C6.34315 7 5 5.65685 5 4C5 2.34315 6.34315 1 8 1C9.65685 1 11 2.34315 11 4ZM12 4C12 6.20914 10.2091 8 8 8C5.79086 8 4 6.20914 4 4C4 1.79086 5.79086 0 8 0C10.2091 0 12 1.79086 12 4ZM1.02242 15C1.27504 12.1968 3.63098 10 6.5 10H9.5C12.369 10 14.725 12.1967 14.9776 15H1.02242ZM9.5 9C12.9216 9 15.7257 11.6438 15.9811 15C15.9936 15.165 16 15.3318 16 15.5V16H15H1H0V15.5C0 15.3318 0.00639146 15.165 0.0189448 15C0.274257 11.6438 3.07839 9 6.5 9H9.5Z" fill="white"/>
</svg>
