<svg width="14" height="17" viewBox="0 0 14 17" fill="none" xmlns="http://www.w3.org/2000/svg">
<path d="M3.11119 17C2.68163 17 2.33341 16.6376 2.33341 16.1905C2.33341 15.7754 2.63367 15.4332 3.02049 15.3865L3.11119 15.381H3.88897V14.9762C3.88897 14.5291 4.23719 14.1667 4.66675 14.1667C5.06562 14.1667 5.39436 14.4792 5.43929 14.8818L5.44452 14.9762V15.381H9.29687L12.2081 10.6679L6.86552 5.72092L5.34204 8.49692L5.31483 8.54291L5.26819 8.60872L5.21672 8.66765C5.18873 8.6968 5.15913 8.72327 5.12823 8.74699L5.0501 8.79985L4.96895 8.84121L4.8856 8.87206L4.81353 8.89027L4.70958 8.90355L4.6349 8.90428L4.51225 8.8889L4.43659 8.86874L4.35257 8.83603L4.24818 8.77775L4.17339 8.72124L4.11677 8.66765L0.227885 4.62006C-0.112087 4.26621 -0.0617505 3.68773 0.312765 3.39859L0.39197 3.34477L5.83641 0.10668C6.11049 -0.056327 6.44839 -0.0293503 6.69402 0.165854L6.77228 0.237123L8.32784 1.85617C8.43922 1.98091 8.51925 2.12919 8.54562 2.29869C8.56872 2.44586 8.55301 2.60086 8.49358 2.74556L8.45314 2.83022L7.65497 4.28321L13.7393 9.9191C14.0016 10.162 14.0724 10.5538 13.9228 10.8757L13.8766 10.9616L11.1464 15.381H12.8334C13.263 15.381 13.6112 15.7434 13.6112 16.1905C13.6112 16.6057 13.3109 16.9478 12.9241 16.9946L12.8334 17H3.11119ZM6.09163 1.81902L2.04797 4.22411L4.49641 6.77249L6.80719 2.56378L6.09163 1.81902Z" fill="#778192"/>
</svg>
