<svg width="12" height="16" viewBox="0 0 12 16" fill="none" xmlns="http://www.w3.org/2000/svg">
<path fill-rule="evenodd" clip-rule="evenodd" d="M9 14L11.2226 15.4818C11.5549 15.7033 12 15.4651 12 15.0657V1.5C12 0.671573 11.3284 0 10.5 0H1.5C0.671573 0 0 0.671573 0 1.5V15.0657C0 15.4651 0.445072 15.7033 0.77735 15.4818L3 14L5.72265 15.8151C5.8906 15.9271 6.1094 15.9271 6.27735 15.8151L9 14ZM3.5 3C3.22386 3 3 3.22386 3 3.5C3 3.77614 3.22386 4 3.5 4H8.5C8.77614 4 9 3.77614 9 3.5C9 3.22386 8.77614 3 8.5 3H3.5ZM3 6.5C3 6.22386 3.22386 6 3.5 6H8.5C8.77614 6 9 6.22386 9 6.5C9 6.77614 8.77614 7 8.5 7H3.5C3.22386 7 3 6.77614 3 6.5ZM6.5 9C6.22386 9 6 9.22386 6 9.5C6 9.77614 6.22386 10 6.5 10H8.5C8.77614 10 9 9.77614 9 9.5C9 9.22386 8.77614 9 8.5 9H6.5Z" fill="white"/>
</svg>
