<svg width="14" height="14" viewBox="0 0 14 14" fill="none" xmlns="http://www.w3.org/2000/svg">
<path fill-rule="evenodd" clip-rule="evenodd" d="M12.5 1H1.5C1.22386 1 1 1.22386 1 1.5V12.5C1 12.7761 1.22386 13 1.5 13H12.5C12.7761 13 13 12.7761 13 12.5V1.5C13 1.22386 12.7761 1 12.5 1ZM14 1.5C14 0.671573 13.3284 0 12.5 0H1.5C0.671574 0 0 0.671573 0 1.5V12.5C0 13.3284 0.671573 14 1.5 14H12.5C13.3284 14 14 13.3284 14 12.5V1.5ZM10.5 3C10.7761 3 11 3.22386 11 3.5C11 3.77614 10.7761 4 10.5 4H3.5C3.22386 4 3 3.77614 3 3.5C3 3.22386 3.22386 3 3.5 3H10.5ZM11 6.5C11 6.22386 10.7761 6 10.5 6H3.5C3.22386 6 3 6.22386 3 6.5C3 6.77614 3.22386 7 3.5 7H10.5C10.7761 7 11 6.77614 11 6.5ZM10.5 9C10.7761 9 11 9.22386 11 9.5C11 9.77614 10.7761 10 10.5 10H3.5C3.22386 10 3 9.77614 3 9.5C3 9.22386 3.22386 9 3.5 9H10.5Z" fill="white"/>
</svg>
