<svg width="14" height="14" viewBox="0 0 14 14" fill="none" xmlns="http://www.w3.org/2000/svg">
<path fill-rule="evenodd" clip-rule="evenodd" d="M4.5 1H9.5C9.77614 1 10 1.22386 10 1.5V4.5C10 4.77614 9.77614 5 9.5 5H8.5H5.5H4.5C4.22386 5 4 4.77614 4 4.5V1.5C4 1.22386 4.22386 1 4.5 1ZM6 6H8V7.5C8 7.77614 8.22386 8 8.5 8H11V9H9.5C8.67157 9 8 9.67157 8 10.5V12.5C8 13.3284 8.67157 14 9.5 14H12.5C13.3284 14 14 13.3284 14 12.5V10.5C14 9.67157 13.3284 9 12.5 9H12V7.5C12 7.22386 11.7761 7 11.5 7H9V6H9.5C10.3284 6 11 5.32843 11 4.5V1.5C11 0.671573 10.3284 0 9.5 0H4.5C3.67157 0 3 0.671573 3 1.5V4.5C3 5.32843 3.67157 6 4.5 6H5V7H2.5C2.22386 7 2 7.22386 2 7.5V9H1.5C0.671573 9 0 9.67157 0 10.5V12.5C0 13.3284 0.671573 14 1.5 14H4.5C5.32843 14 6 13.3284 6 12.5V10.5C6 9.67157 5.32843 9 4.5 9H3V8H5.5C5.77614 8 6 7.77614 6 7.5V6ZM2.5 10H1.5C1.22386 10 1 10.2239 1 10.5V12.5C1 12.7761 1.22386 13 1.5 13H4.5C4.77614 13 5 12.7761 5 12.5V10.5C5 10.2239 4.77614 10 4.5 10H2.5ZM9.5 10H11.5H12.5C12.7761 10 13 10.2239 13 10.5V12.5C13 12.7761 12.7761 13 12.5 13H9.5C9.22386 13 9 12.7761 9 12.5V10.5C9 10.2239 9.22386 10 9.5 10Z" fill="white"/>
</svg>
