<svg width="14" height="16" viewBox="0 0 14 16" fill="none" xmlns="http://www.w3.org/2000/svg">
<path d="M4.27778 9.45312C3.84823 9.45312 3.5 9.77872 3.5 10.1804C3.5 10.5821 3.84823 10.9077 4.27778 10.9077H9.72222C10.1518 10.9077 10.5 10.5821 10.5 10.1804C10.5 9.77872 10.1518 9.45312 9.72222 9.45312H4.27778Z" fill="white"/>
<path d="M3.5 12.364C3.5 11.9623 3.84823 11.6367 4.27778 11.6367H7C7.42955 11.6367 7.77778 11.9623 7.77778 12.364C7.77778 12.7657 7.42955 13.0913 7 13.0913H4.27778C3.84823 13.0913 3.5 12.7657 3.5 12.364Z" fill="white"/>
<path d="M9.88504 4.51497C10.1888 4.23095 10.1888 3.77047 9.88504 3.48645C9.58131 3.20243 9.08882 3.20243 8.7851 3.48645L6.22396 5.88128L5.21838 4.94099C4.91463 4.65698 4.42217 4.65698 4.11843 4.94099C3.81469 5.22502 3.81469 5.6855 4.11843 5.96952L5.67398 7.42406C5.97773 7.70806 6.47019 7.70806 6.77393 7.42406L9.88504 4.51497Z" fill="white"/>
<path fill-rule="evenodd" clip-rule="evenodd" d="M1.55556 0C0.696446 0 0 0.651222 0 1.45455V14.5455C0 15.3488 0.696453 16 1.55556 16H12.4444C13.3036 16 14 15.3488 14 14.5455V1.45455C14 0.651229 13.3036 0 12.4444 0H1.55556ZM1.55556 1.45455H12.4444V14.5455H1.55556V1.45455Z" fill="white"/>
</svg>
