<svg width="16" height="16" viewBox="0 0 16 16" fill="none" xmlns="http://www.w3.org/2000/svg">
<path fill-rule="evenodd" clip-rule="evenodd" d="M4.66797 0.667969C3.01111 0.667969 1.66797 2.01112 1.66797 3.66797C1.66797 5.32482 3.01112 6.66797 4.66797 6.66797C6.32482 6.66797 7.66797 5.32482 7.66797 3.66797C7.66797 2.01112 6.32483 0.667969 4.66797 0.667969ZM3.0013 3.66797C3.0013 2.7475 3.7475 2.0013 4.66797 2.0013C5.58844 2.0013 6.33464 2.7475 6.33464 3.66797C6.33464 4.58845 5.58845 5.33464 4.66797 5.33464C3.74749 5.33464 3.0013 4.58845 3.0013 3.66797Z" fill="#778192"/>
<path fill-rule="evenodd" clip-rule="evenodd" d="M11.332 0.667969C9.67516 0.667969 8.33203 2.01112 8.33203 3.66797C8.33203 5.32482 9.67516 6.66797 11.332 6.66797C12.9889 6.66797 14.332 5.32482 14.332 3.66797C14.332 2.01112 12.9889 0.667969 11.332 0.667969ZM9.66536 3.66797C9.66536 2.7475 10.4116 2.0013 11.332 2.0013C12.2525 2.0013 12.9987 2.7475 12.9987 3.66797C12.9987 4.58845 12.2525 5.33464 11.332 5.33464C10.4116 5.33464 9.66536 4.58845 9.66536 3.66797Z" fill="#778192"/>
<path d="M4.14167 9.0013C3.06233 9.0013 2.0013 10.0833 2.0013 11.668V14.668C2.0013 15.0362 1.70282 15.3346 1.33464 15.3346C0.966449 15.3346 0.667969 15.0362 0.667969 14.668V11.668C0.667969 9.57077 2.12043 7.66797 4.14167 7.66797H5.82587C6.7343 7.66797 7.43063 8.11544 7.8697 8.50977C7.91397 8.5495 7.95617 8.58924 7.9963 8.6285C8.03417 8.59077 8.0739 8.5527 8.11543 8.51457C8.5439 8.12144 9.22924 7.66797 10.1232 7.66797H11.8275C13.8604 7.66797 15.3346 9.5629 15.3346 11.668V14.668C15.3346 15.0362 15.0361 15.3346 14.6679 15.3346C14.2997 15.3346 14.0012 15.0362 14.0012 14.668V11.668C14.0012 10.0912 12.932 9.0013 11.8275 9.0013H10.1232C9.69684 9.0013 9.3199 9.21897 9.0169 9.49704C8.86977 9.63204 8.7545 9.7685 8.67683 9.87064C8.63837 9.92124 8.61037 9.96183 8.59337 9.9875C8.45483 10.1965 8.2635 10.3436 8.0013 10.3436C7.66797 10.3346 7.5067 10.1331 7.4121 9.99364C7.39417 9.9673 7.3653 9.92637 7.32603 9.8757C7.24677 9.77344 7.12923 9.6369 6.97877 9.50177C6.6705 9.22497 6.27911 9.0013 5.82587 9.0013H4.14167Z" fill="#778192"/>
<path d="M5.24778 12.5502C5.50871 12.2905 5.50966 11.8684 5.24989 11.6074C4.99012 11.3465 4.56802 11.3456 4.30708 11.6054L3.04788 12.8589C2.78764 13.118 2.78591 13.5387 3.04401 13.8L4.30321 15.0743C4.562 15.3362 4.9841 15.3388 5.246 15.08C5.50791 14.8212 5.51044 14.399 5.25165 14.1372L5.11655 14.0004H11.0993L10.9537 14.1508C10.6976 14.4154 10.7045 14.8374 10.9691 15.0935C11.2337 15.3496 11.6557 15.3427 11.9118 15.0781L13.1513 13.7974C13.4039 13.5364 13.4011 13.1213 13.1451 12.8638L11.9056 11.6166C11.646 11.3554 11.2239 11.3542 10.9628 11.6137C10.7016 11.8732 10.7003 12.2954 10.9599 12.5565L11.0698 12.6671H5.13041L5.24778 12.5502Z" fill="#778192"/>
</svg>
