<svg width="19" height="23" viewBox="0 0 19 23" fill="none" xmlns="http://www.w3.org/2000/svg">
<g clip-path="url(#clip0)">
<path d="M9.50027 11.5802C10.2546 11.5922 11.0033 11.4479 11.7002 11.1562C12.3972 10.8644 13.0276 10.4315 13.5525 9.88417C14.0944 9.35389 14.523 8.71705 14.8118 8.01294C15.1007 7.30883 15.2436 6.5524 15.2319 5.79031C15.2437 5.02818 15.1007 4.27169 14.8119 3.56753C14.523 2.86338 14.0944 2.22649 13.5525 1.69618C13.0275 1.14891 12.3971 0.716107 11.7002 0.424449C11.0032 0.132792 10.2545 -0.0115327 9.50027 0.00037613C8.74601 -0.0115327 7.99732 0.132792 7.30039 0.424449C6.60345 0.716107 5.97305 1.14891 5.44805 1.69618C4.90631 2.22654 4.47785 2.86342 4.18911 3.56751C3.90037 4.27161 3.75747 5.028 3.76922 5.79003C3.75747 6.55207 3.90037 7.30846 4.18911 8.01256C4.47785 8.71665 4.90631 9.35353 5.44805 9.88389C5.973 10.4313 6.60339 10.8642 7.30032 11.1559C7.99726 11.4477 8.74597 11.5921 9.50027 11.5802Z" fill="#BCBCBC"/>
<path d="M18.9532 18.0585C18.9164 17.5601 18.8533 17.0641 18.7642 16.5725C18.6771 16.072 18.5576 15.5778 18.4064 15.0931C18.259 14.6309 18.0646 14.1854 17.8262 13.7637C17.6019 13.3561 17.32 12.9837 16.9893 12.6583C16.6554 12.3418 16.2635 12.094 15.8357 11.9289C15.3559 11.7426 14.8453 11.6501 14.3312 11.6564C14.1252 11.7161 13.9326 11.8156 13.7641 11.9494C13.4677 12.1449 13.1328 12.3631 12.7593 12.6041C12.3024 12.8831 11.8126 13.1031 11.3015 13.2591C10.1318 13.6501 8.86849 13.6501 7.69876 13.2591C7.1879 13.1035 6.69835 12.884 6.24151 12.6055C5.86801 12.3643 5.5329 12.1461 5.23618 11.9508C5.06791 11.8169 4.8755 11.7174 4.66964 11.6578C4.15555 11.6514 3.64495 11.7439 3.16507 11.9303C2.73721 12.0952 2.34535 12.343 2.01148 12.6597C1.68082 12.9851 1.39892 13.3575 1.17466 13.7651C0.936464 14.1869 0.742027 14.6324 0.594444 15.0945C0.44308 15.5787 0.323368 16.0724 0.236083 16.5725C0.146599 17.064 0.0834968 17.5601 0.0470539 18.0585C0.0155035 18.5175 -0.0001808 18.9878 1.57215e-06 19.4694C1.57215e-06 20.5601 0.328272 21.4214 0.984812 22.0532C1.69918 22.7063 2.64067 23.0468 3.60304 23H15.3978C16.36 23.0468 17.3013 22.7063 18.0155 22.0532C18.672 21.4214 19.0003 20.5601 19.0003 19.4694C19.0005 18.9878 18.9848 18.5175 18.9532 18.0585Z" fill="#BCBCBC"/>
</g>
<defs>
<clipPath id="clip0">
<rect width="19" height="23" fill="white"/>
</clipPath>
</defs>
</svg>
