<svg width="22" height="23" viewBox="0 0 22 23" fill="none" xmlns="http://www.w3.org/2000/svg">
<path d="M15.461 2.46976C15.6641 2.23614 15.9112 2.04479 16.1882 1.90665C16.4652 1.76851 16.7666 1.68628 17.0754 1.66466C17.3842 1.64304 17.6942 1.68244 17.9877 1.78063C18.2813 1.87882 18.5526 2.03386 18.7862 2.2369C19.0199 2.43995 19.2112 2.68702 19.3493 2.96401C19.4875 3.24101 19.5697 3.5425 19.5913 3.85127C19.613 4.16004 19.5736 4.47005 19.4754 4.76359C19.3772 5.05714 19.2221 5.32847 19.0191 5.56209L8.58248 17.5705L4.09767 19.1376L5.02443 14.4782L15.461 2.46976Z" stroke="#4F4F4F" stroke-width="1.5" stroke-linecap="round" stroke-linejoin="round"/>
<path d="M11.5 2.55696H1V22.057H17V12.557" stroke="#4F4F4F" stroke-width="1.5" stroke-linecap="round" stroke-linejoin="round"/>
</svg>
