<svg width="14" height="20" viewBox="0 0 14 20" fill="none" xmlns="http://www.w3.org/2000/svg">
<g clip-path="url(#clip0)">
<path d="M4.05275 7.70025L4.05275 8.47025C4.4597 8.47025 4.78959 8.12552 4.78959 7.70025L4.05275 7.70025ZM1.22113 9.62525L1.73261 9.07097L1.22113 9.62525ZM5.60955 14.0473L6.12102 13.4931L5.60955 14.0473ZM8.29474 14.0473L8.80622 14.6016L8.29474 14.0473ZM12.6831 9.62525L13.1946 10.1795L12.6831 9.62525ZM9.94748 7.70025L9.21064 7.70025C9.21064 8.12552 9.54052 8.47025 9.94748 8.47025L9.94748 7.70025ZM9.94748 3.85025L9.21064 3.85025L9.94748 3.85025ZM9.21064 0.770252L9.21064 0.000252167L9.21064 0.770252ZM4.78959 0.770252L4.78959 1.54025L4.78959 0.770252ZM4.05274 1.54025L3.3159 1.54025L4.05274 1.54025ZM4.05274 3.85025L4.78959 3.85025L4.05274 3.85025ZM1.96464 8.47025L4.05275 8.47025L4.05275 6.93025L1.96464 6.93025L1.96464 8.47025ZM1.73261 9.07097C1.51613 8.85283 1.6639 8.47025 1.96464 8.47025L1.96464 6.93025C0.338029 6.93025 -0.461223 8.99967 0.709693 10.1795L1.73261 9.07097ZM6.12102 13.4931L1.73261 9.07097L0.709693 10.1795L5.09807 14.6016L6.12102 13.4931ZM7.78327 13.4931C7.31946 13.9605 6.58483 13.9605 6.12102 13.4931L5.09807 14.6016C6.13278 15.6443 7.77151 15.6443 8.80622 14.6016L7.78327 13.4931ZM12.1717 9.07097L7.78327 13.4931L8.80622 14.6016L13.1946 10.1795L12.1717 9.07097ZM11.9397 8.47025C12.2404 8.47025 12.3881 8.85283 12.1717 9.07097L13.1946 10.1795C14.3655 8.99967 13.5662 6.93025 11.9397 6.93025L11.9397 8.47025ZM9.94748 8.47025L11.9397 8.47025L11.9397 6.93025L9.94748 6.93025L9.94748 8.47025ZM9.21064 3.85025L9.21064 7.70025L10.6843 7.70025L10.6843 3.85025L9.21064 3.85025ZM9.21064 1.54025L9.21064 3.85025L10.6843 3.85025L10.6843 1.54025L9.21064 1.54025ZM9.21064 1.54025L10.6843 1.54025C10.6843 0.689748 10.0245 0.000252096 9.21064 0.000252167L9.21064 1.54025ZM4.78959 1.54025L9.21064 1.54025L9.21064 0.000252167L4.78959 0.000252553L4.78959 1.54025ZM4.78959 1.54025L4.78959 0.000252553C3.97571 0.000252625 3.3159 0.689749 3.3159 1.54025L4.78959 1.54025ZM4.78959 3.85025L4.78959 1.54025L3.3159 1.54025L3.3159 3.85025L4.78959 3.85025ZM4.78959 7.70025L4.78959 3.85025L3.3159 3.85025L3.3159 7.70025L4.78959 7.70025Z" fill="#4F4F4F"/>
</g>
<line x1="0.5" y1="19.1" x2="13.5" y2="19.1" stroke="#4F4F4F" stroke-linecap="round" stroke-linejoin="bevel"/>
<defs>
<clipPath id="clip0">
<rect width="14" height="15.4" fill="white" transform="translate(14 15.4) rotate(180)"/>
</clipPath>
</defs>
</svg>
