<svg width="30" height="20" viewBox="0 0 30 20" fill="none" xmlns="http://www.w3.org/2000/svg">
<rect width="30" height="20" rx="4" fill="#6FCF97"/>
<path fill-rule="evenodd" clip-rule="evenodd" d="M9.39338 7.30721C10.7563 6.19766 12.7386 5 15.0001 5C17.2616 5 19.2439 6.19766 20.6068 7.30721C21.2986 7.87039 21.8566 8.43193 22.242 8.85264C22.4351 9.06346 22.5859 9.24014 22.6896 9.36561C22.7416 9.42839 22.7817 9.47844 22.8096 9.51366C22.8235 9.53127 22.8344 9.54519 22.8421 9.55513L22.8513 9.56705L22.8541 9.57071L22.855 9.57196C22.8552 9.57216 22.8557 9.57283 22.2728 10C22.8557 10.4272 22.8556 10.4274 22.8555 10.4276L22.8541 10.4293L22.8513 10.433L22.8421 10.4449C22.8344 10.4548 22.8235 10.4687 22.8096 10.4863C22.7817 10.5216 22.7416 10.5716 22.6896 10.6344C22.5859 10.7599 22.4351 10.9365 22.242 11.1474C21.8566 11.5681 21.2986 12.1296 20.6068 12.6928C19.2439 13.8024 17.2616 15 15.0001 15C12.7386 15 10.7563 13.8024 9.39338 12.6928C8.7016 12.1296 8.14357 11.5681 7.75821 11.1474C7.56511 10.9365 7.41426 10.7599 7.31053 10.6344C7.25863 10.5716 7.21845 10.5216 7.1906 10.4863C7.17666 10.4687 7.16581 10.4548 7.1581 10.4449L7.14891 10.433L7.1461 10.4293L7.14514 10.428C7.14499 10.4278 7.14449 10.4272 7.72737 10C7.14449 9.57283 7.14463 9.57264 7.14478 9.57244L7.1461 9.57071L7.14891 9.56705L7.1581 9.55513C7.16581 9.54519 7.17666 9.53127 7.1906 9.51366C7.21845 9.47844 7.25863 9.42839 7.31053 9.36561C7.41426 9.24014 7.56511 9.06346 7.75821 8.85264C8.14357 8.43193 8.7016 7.87039 9.39338 7.30721ZM7.72737 10L7.14478 9.57244C6.95226 9.82584 6.95197 10.1738 7.14449 10.4272L7.72737 10ZM8.66715 10C8.71934 10.0593 8.77689 10.1235 8.83958 10.1919C9.19026 10.5748 9.6973 11.0847 10.3216 11.5929C11.5909 12.6262 13.245 13.5714 15.0001 13.5714C16.7552 13.5714 18.4093 12.6262 19.6786 11.5929C20.3029 11.0847 20.8099 10.5748 21.1606 10.1919C21.2233 10.1235 21.2808 10.0593 21.3331 10C21.2808 9.94074 21.2233 9.87651 21.1606 9.80807C20.8099 9.42521 20.3029 8.91533 19.6786 8.40707C18.4093 7.37376 16.7552 6.42857 15.0001 6.42857C13.245 6.42857 11.5909 7.37376 10.3216 8.40707C9.6973 8.91533 9.19026 9.42521 8.83958 9.80807C8.77689 9.87651 8.71934 9.94074 8.66715 10ZM22.2728 10L22.8555 10.4276C23.048 10.1742 23.0483 9.82622 22.8557 9.57283L22.2728 10ZM12.4546 10C12.4546 8.6193 13.5943 7.5 15.0001 7.5C16.4059 7.5 17.5456 8.6193 17.5456 10C17.5456 11.3807 16.4059 12.5 15.0001 12.5C13.5943 12.5 12.4546 11.3807 12.4546 10ZM15.0001 8.92857C14.3976 8.92857 13.9092 9.40827 13.9092 10C13.9092 10.5917 14.3976 11.0714 15.0001 11.0714C15.6026 11.0714 16.091 10.5917 16.091 10C16.091 9.40827 15.6026 8.92857 15.0001 8.92857Z" fill="white"/>
</svg>
