<svg width="42" height="29" viewBox="0 0 42 29" fill="none" xmlns="http://www.w3.org/2000/svg">
<rect x="0.5" y="0.5" width="40.7681" height="27.8399" rx="3.5" fill="#006FCF" stroke="#F3F3F3"/>
<path fill-rule="evenodd" clip-rule="evenodd" d="M8.54162 20.8336V14.8966H15.256L15.9763 15.7758L16.7205 14.8966H41.0919V20.4242C41.0919 20.4242 40.4545 20.8277 39.7174 20.8336H26.2225L25.4103 19.8977V20.8336H22.7488V19.236C22.7488 19.236 22.3852 19.459 21.5992 19.459H20.6933V20.8336H16.6636L15.9442 19.9356L15.2138 20.8336H8.54162ZM0.71875 10.4221L2.22942 7.11719H4.84198L5.6993 8.96844V7.11719H8.94695L9.45732 8.45522L9.9521 7.11719H24.5307V7.78986C24.5307 7.78986 25.297 7.11719 26.5565 7.11719L31.2867 7.1327L32.1293 8.95972V7.11719H34.8471L35.5951 8.16667V7.11719H38.3378V13.0542H35.5951L34.8782 12.0014V13.0542H30.8852L30.4836 12.1184H29.4102L29.0151 13.0542H26.3072C25.2234 13.0542 24.5307 12.3953 24.5307 12.3953V13.0542H20.4477L19.6374 12.1184V13.0542H4.45494L4.05366 12.1184H2.98362L2.58518 13.0542H0.71875V10.4221ZM0.726074 12.2943L2.76364 7.84881H4.30838L6.344 12.2943H4.98822L4.61421 11.4041H2.42859L2.05264 12.2943H0.726074ZM4.18303 10.4388L3.51683 8.88323L2.84868 10.4388H4.18303ZM6.48511 12.2938V7.84834L8.37023 7.85491L9.46668 10.7211L10.5369 7.84834H12.4069V12.2938H11.2226V9.01821L9.96711 12.2938H8.92842L7.66948 9.01821V12.2938H6.48511ZM13.2172 12.2938V7.84834H17.0819V8.84273H14.414V9.60314H17.0196V10.539H14.414V11.3287H17.0819V12.2938H13.2172ZM17.7661 12.2943V7.84881H20.4017C21.275 7.84881 22.0574 8.35555 22.0574 9.29103C22.0574 10.0907 21.3977 10.6058 20.7581 10.6565L22.3165 12.2943H20.8692L19.4491 10.715H18.9504V12.2943H17.7661ZM20.3046 8.84301H18.9507V9.7789H20.3221C20.5595 9.7789 20.8656 9.60629 20.8656 9.31096C20.8656 9.0814 20.6293 8.84301 20.3046 8.84301ZM23.7517 12.2938H22.5424V7.84834H23.7517V12.2938ZM26.6179 12.2938H26.3569C25.0939 12.2938 24.3271 11.3601 24.3271 10.0894C24.3271 8.7872 25.0853 7.84834 26.6802 7.84834H27.9893V8.90122H26.6324C25.9849 8.90122 25.527 9.37535 25.527 10.1003C25.527 10.9613 26.0506 11.3228 26.8049 11.3228H27.1166L26.6179 12.2938ZM27.1574 12.2943L29.195 7.84881H30.7397L32.7753 12.2943H31.4195L31.0455 11.4041H28.8599L28.4839 12.2943H27.1574ZM30.6129 10.4388L29.9467 8.88323L29.2785 10.4388H30.6129ZM32.9141 12.2938V7.84834H34.4199L36.3425 10.6414V7.84834H37.5269V12.2938H36.0698L34.0985 9.42766V12.2938H32.9141ZM9.35192 20.0733V15.6278H13.2167V16.6222H10.5488V17.3826H13.1543V18.3185H10.5488V19.1082H13.2167V20.0733H9.35192ZM28.2894 20.0733V15.6278H32.1542V16.6222H29.4862V17.3826H32.0794V18.3185H29.4862V19.1082H32.1542V20.0733H28.2894ZM13.3669 20.0733L15.2486 17.878L13.3221 15.6278H14.8142L15.9616 17.0189L17.1128 15.6278H18.5465L16.6453 17.8506L18.5305 20.0733H17.0386L15.9246 18.7042L14.8376 20.0733H13.3669ZM18.6739 20.0742V15.6288H21.29C22.3635 15.6288 22.9906 16.278 22.9906 17.124C22.9906 18.1453 22.191 18.6704 21.1361 18.6704H19.8894V20.0742H18.6739ZM21.2026 16.6342H19.8897V17.6579H21.1987C21.5446 17.6579 21.787 17.4427 21.787 17.146C21.787 16.8302 21.5434 16.6342 21.2026 16.6342ZM23.4983 20.0733V15.6278H26.1339C27.0072 15.6278 27.7897 16.1346 27.7897 17.0701C27.7897 17.8698 27.1299 18.3849 26.4904 18.4355L28.0487 20.0733H26.6014L25.1813 18.494H24.6827V20.0733H23.4983ZM26.0369 16.622H24.683V17.5579H26.0544C26.2918 17.5579 26.5979 17.3853 26.5979 17.09C26.5979 16.8604 26.3616 16.622 26.0369 16.622ZM32.7016 20.0733V19.1082H35.0719C35.4226 19.1082 35.5745 18.9303 35.5745 18.7353C35.5745 18.5484 35.4231 18.3595 35.0719 18.3595H34.0008C33.0698 18.3595 32.5513 17.8272 32.5513 17.028C32.5513 16.3152 33.0261 15.6278 34.4096 15.6278H36.716L36.2173 16.6281H34.2226C33.8413 16.6281 33.7239 16.8158 33.7239 16.9951C33.7239 17.1794 33.869 17.3826 34.1603 17.3826H35.2823C36.3202 17.3826 36.7705 17.9351 36.7705 18.6585C36.7705 19.4363 36.2687 20.0733 35.2258 20.0733H32.7016ZM36.8757 20.0733V19.1082H39.2459C39.5967 19.1082 39.7485 18.9303 39.7485 18.7353C39.7485 18.5484 39.5971 18.3595 39.2459 18.3595H38.1748C37.2438 18.3595 36.7253 17.8272 36.7253 17.028C36.7253 16.3152 37.2001 15.6278 38.5836 15.6278H40.89L40.3913 16.6281H38.3966C38.0153 16.6281 37.8979 16.8158 37.8979 16.9951C37.8979 17.1794 38.043 17.3826 38.3343 17.3826H39.4563C40.4942 17.3826 40.9446 17.9351 40.9446 18.6585C40.9446 19.4363 40.4427 20.0733 39.3998 20.0733H36.8757Z" fill="white"/>
</svg>
