<svg width="42" height="29" viewBox="0 0 42 29" fill="none" xmlns="http://www.w3.org/2000/svg">
<rect x="0.5" y="0.5" width="40.7681" height="27.8399" rx="3.5" fill="white" stroke="#F3F3F3"/>
<path fill-rule="evenodd" clip-rule="evenodd" d="M12.6551 10.7601C12.3513 11.124 11.8652 11.4111 11.3791 11.3701C11.3183 10.878 11.5563 10.3552 11.8348 10.0323C12.1386 9.65813 12.6703 9.3916 13.1007 9.37109C13.1513 9.88365 12.9538 10.386 12.6551 10.7601ZM13.0949 11.4677C12.6667 11.4428 12.2759 11.5981 11.9603 11.7235C11.7572 11.8043 11.5852 11.8726 11.4544 11.8726C11.3075 11.8726 11.1284 11.8006 10.9273 11.7197C10.6639 11.6138 10.3626 11.4926 10.0467 11.4985C9.32265 11.5087 8.6492 11.9239 8.27957 12.5851C7.52005 13.9075 8.08209 15.8654 8.8163 16.9418C9.1758 17.4749 9.6062 18.0592 10.1733 18.0387C10.4228 18.0291 10.6023 17.9521 10.788 17.8723C11.0018 17.7804 11.224 17.685 11.5708 17.685C11.9057 17.685 12.1181 17.7779 12.322 17.8671C12.5159 17.952 12.7021 18.0334 12.9785 18.0284C13.5658 18.0182 13.9355 17.4954 14.295 16.9623C14.6829 16.3902 14.8534 15.8318 14.8793 15.7471L14.8823 15.7373C14.8817 15.7367 14.8769 15.7345 14.8685 15.7305C14.7388 15.6704 13.7475 15.2111 13.738 13.9792C13.7285 12.9453 14.5243 12.4214 14.6495 12.339C14.6571 12.3339 14.6623 12.3306 14.6646 12.3288C14.1583 11.5702 13.3684 11.4882 13.0949 11.4677ZM17.1614 17.9715V9.98079H20.1235C21.6527 9.98079 22.7211 11.0469 22.7211 12.6051C22.7211 14.1632 21.6324 15.2396 20.083 15.2396H18.3867V17.9715H17.1614ZM18.3872 11.0268H19.7999C20.8633 11.0268 21.4709 11.6009 21.4709 12.6106C21.4709 13.6204 20.8633 14.1996 19.7949 14.1996H18.3872V11.0268ZM26.7654 17.0133C26.4413 17.6386 25.7274 18.0332 24.9577 18.0332C23.8185 18.0332 23.0235 17.3464 23.0235 16.3111C23.0235 15.2859 23.7931 14.6965 25.216 14.6094L26.7451 14.5171V14.0763C26.7451 13.4254 26.3249 13.0717 25.5755 13.0717C24.9577 13.0717 24.5071 13.3946 24.4159 13.8867H23.3121C23.3476 12.8513 24.3096 12.0978 25.6109 12.0978C27.0135 12.0978 27.9249 12.8411 27.9249 13.9943V17.9717H26.7907V17.0133H26.7654ZM25.2886 17.0849C24.6354 17.0849 24.2202 16.7671 24.2202 16.2802C24.2202 15.7779 24.6202 15.4857 25.3848 15.4396L26.7469 15.3525V15.8035C26.7469 16.5519 26.119 17.0849 25.2886 17.0849ZM31.6883 18.2842C31.1971 19.6835 30.6351 20.1448 29.4401 20.1448C29.349 20.1448 29.0452 20.1346 28.9743 20.1141V19.1556C29.0502 19.1658 29.2376 19.1761 29.3338 19.1761C29.8756 19.1761 30.1794 18.9454 30.3667 18.3458L30.4781 17.9921L28.4021 12.1746H29.6832L31.1263 16.8952H31.1516L32.5947 12.1746H33.8403L31.6883 18.2842Z" fill="black"/>
</svg>
