<svg width="42" height="29" viewBox="0 0 42 29" fill="none" xmlns="http://www.w3.org/2000/svg">
<rect x="0.5" y="0.5" width="40.7681" height="27.8399" rx="3.5" fill="white" stroke="#F3F3F3"/>
<path fill-rule="evenodd" clip-rule="evenodd" d="M20.1028 17.3882V14.1357V14.1351H21.8602C22.5847 14.1355 23.1936 13.9076 23.6869 13.4513C24.1855 13.0182 24.4642 12.3955 24.45 11.7465C24.4599 11.1011 24.1817 10.483 23.6869 10.0514C23.198 9.59256 22.5403 9.34223 21.8602 9.35601H19.0391V17.3882H20.1028ZM20.1036 13.1487V10.3448V10.3442H21.8874C22.285 10.3333 22.6683 10.4885 22.9399 10.7703C23.2132 11.0281 23.3674 11.3821 23.3674 11.7519C23.3674 12.1216 23.2132 12.4756 22.9399 12.7334C22.6649 13.0093 22.2829 13.16 21.8874 13.1487H20.1036Z" fill="#5F6368"/>
<path fill-rule="evenodd" clip-rule="evenodd" d="M28.766 12.3262C28.311 11.9186 27.6904 11.7148 26.9042 11.7148C25.8943 11.7148 25.1316 12.0737 24.6163 12.7915L25.5531 13.3638C25.8993 12.8776 26.3695 12.6345 26.9637 12.6345C27.3425 12.6302 27.7091 12.7645 27.9904 13.0107C28.2708 13.2356 28.4322 13.571 28.4297 13.924V14.1598C28.021 13.9355 27.5008 13.8234 26.8692 13.8234C26.1292 13.8242 25.5377 13.9926 25.0946 14.3284C24.6515 14.6642 24.43 15.1165 24.43 15.6851C24.4203 16.203 24.6519 16.6974 25.0603 17.031C25.4805 17.3899 26.0026 17.5693 26.6267 17.5693C27.3579 17.5693 27.9437 17.2553 28.3841 16.6272H28.4304V17.3899H29.4478V14.0028C29.4483 13.2927 29.221 12.7339 28.766 12.3262ZM25.8817 16.3804C25.6589 16.2246 25.5275 15.9739 25.5289 15.7075C25.5289 15.4082 25.6736 15.1589 25.965 14.9538C26.2535 14.7517 26.6138 14.6506 27.0459 14.6506C27.6392 14.6506 28.1016 14.7788 28.4333 15.0352C28.4333 15.4684 28.2571 15.8459 27.9047 16.1676C27.5874 16.4755 27.1571 16.6488 26.7083 16.6496C26.409 16.655 26.117 16.5599 25.8817 16.3804Z" fill="#5F6368"/>
<path fill-rule="evenodd" clip-rule="evenodd" d="M35.2845 11.8945L31.7327 19.8127H30.6346L31.9527 17.0421L29.6172 11.8945H30.7734L32.4614 15.8424H32.4845L34.1263 11.8945H35.2845Z" fill="#5F6368"/>
<path fill-rule="evenodd" clip-rule="evenodd" d="M15.8062 13.4344C15.8066 13.1199 15.7792 12.806 15.7243 12.4961H11.2383V14.2733H13.8077C13.7014 14.8468 13.3582 15.3534 12.8576 15.6755V16.8291H14.391C15.2889 16.0261 15.8062 14.8385 15.8062 13.4344Z" fill="#4285F4"/>
<path fill-rule="evenodd" clip-rule="evenodd" d="M11.2384 17.9461C12.5221 17.9461 13.603 17.5372 14.3912 16.8322L12.8577 15.6786C12.4309 15.9593 11.8813 16.1196 11.2384 16.1196C9.99767 16.1196 8.94455 15.3082 8.56796 14.2148H6.98828V15.4037C7.79573 16.9623 9.4402 17.946 11.2384 17.9461Z" fill="#34A853"/>
<path fill-rule="evenodd" clip-rule="evenodd" d="M8.56667 14.2129C8.36759 13.64 8.36759 13.0196 8.56667 12.4467V11.2578H6.98699C6.31163 12.5615 6.31163 14.0981 6.98699 15.4018L8.56667 14.2129Z" fill="#FBBC04"/>
<path fill-rule="evenodd" clip-rule="evenodd" d="M11.2384 10.5417C11.9168 10.5309 12.5723 10.7796 13.0632 11.2338L14.4209 9.91681C13.56 9.13241 12.4195 8.70177 11.2384 8.71515C9.4402 8.71523 7.79573 9.69893 6.98828 11.2575L8.56796 12.4464C8.94455 11.353 9.99767 10.5417 11.2384 10.5417Z" fill="#EA4335"/>
</svg>
