<svg width="42" height="29" viewBox="0 0 42 29" fill="none" xmlns="http://www.w3.org/2000/svg">
<rect x="0.5" y="0.5" width="40.7681" height="27.8399" rx="3.5" fill="white" stroke="#F3F3F3"/>
<path fill-rule="evenodd" clip-rule="evenodd" d="M15.3022 22.2699V23.3348V24.3996H14.836V24.141C14.6882 24.3328 14.4638 24.4531 14.1589 24.4531C13.5577 24.4531 13.0864 23.9855 13.0864 23.3348C13.0864 22.6846 13.5577 22.2164 14.1589 22.2164C14.4638 22.2164 14.6882 22.3368 14.836 22.5285V22.2699H15.3022ZM14.2162 22.6531C13.8127 22.6531 13.5658 22.9606 13.5658 23.3349C13.5658 23.7093 13.8127 24.0168 14.2162 24.0168C14.6018 24.0168 14.862 23.7225 14.862 23.3349C14.862 22.9474 14.6018 22.6531 14.2162 22.6531ZM31.0528 23.3349C31.0528 22.9606 31.2997 22.6531 31.7032 22.6531C32.0893 22.6531 32.349 22.9474 32.349 23.3349C32.349 23.7225 32.0893 24.0168 31.7032 24.0168C31.2997 24.0168 31.0528 23.7093 31.0528 23.3349ZM32.7892 21.4147V23.3348V24.3996H32.3225V24.141C32.1747 24.3328 31.9503 24.4531 31.6454 24.4531C31.0442 24.4531 30.573 23.9855 30.573 23.3348C30.573 22.6846 31.0442 22.2164 31.6454 22.2164C31.9503 22.2164 32.1747 22.3368 32.3225 22.5285V21.4147H32.7892ZM21.0872 22.6312C21.3876 22.6312 21.5806 22.8183 21.6299 23.1478H20.5174C20.5672 22.8403 20.7551 22.6312 21.0872 22.6312ZM20.0284 23.3348C20.0284 22.6708 20.4678 22.2164 21.0962 22.2164C21.6968 22.2164 22.1096 22.6708 22.1142 23.3348C22.1142 23.397 22.1096 23.4551 22.1049 23.5127H20.513C20.5802 23.8962 20.8539 24.0344 21.1542 24.0344C21.3693 24.0344 21.5982 23.9539 21.7779 23.8116L22.0064 24.1548C21.7461 24.3731 21.4504 24.4531 21.1275 24.4531C20.4858 24.4531 20.0284 24.012 20.0284 23.3348ZM26.7253 23.3349C26.7253 22.9606 26.9722 22.6531 27.3757 22.6531C27.7613 22.6531 28.0215 22.9474 28.0215 23.3349C28.0215 23.7225 27.7613 24.0168 27.3757 24.0168C26.9722 24.0168 26.7253 23.7093 26.7253 23.3349ZM28.4612 22.2699V23.3348V24.3996H27.995V24.141C27.8467 24.3328 27.6229 24.4531 27.3179 24.4531C26.7168 24.4531 26.2455 23.9855 26.2455 23.3348C26.2455 22.6846 26.7168 22.2164 27.3179 22.2164C27.6229 22.2164 27.8467 22.3368 27.995 22.5285V22.2699H28.4612ZM24.0933 23.3348C24.0933 23.9809 24.5461 24.4531 25.2371 24.4531C25.56 24.4531 25.7751 24.3817 26.0082 24.1992L25.7843 23.8248C25.6093 23.9498 25.4255 24.0166 25.2232 24.0166C24.851 24.012 24.5774 23.7448 24.5774 23.3348C24.5774 22.9247 24.851 22.6575 25.2232 22.6529C25.4255 22.6529 25.6093 22.7197 25.7843 22.8447L26.0082 22.4704C25.7751 22.2878 25.56 22.2164 25.2371 22.2164C24.5461 22.2164 24.0933 22.6886 24.0933 23.3348ZM29.5378 22.5284C29.659 22.3413 29.834 22.2163 30.103 22.2163C30.1975 22.2163 30.332 22.2342 30.4352 22.2745L30.2914 22.711C30.1929 22.6707 30.0943 22.6574 29.9998 22.6574C29.6949 22.6574 29.5424 22.8533 29.5424 23.2057V24.3995H29.0758V22.2699H29.5378V22.5284ZM17.6072 22.4393C17.3829 22.2924 17.0738 22.2164 16.7329 22.2164C16.1898 22.2164 15.8402 22.475 15.8402 22.8982C15.8402 23.2455 16.1005 23.4597 16.5799 23.5265L16.8002 23.5576C17.0558 23.5933 17.1765 23.6601 17.1765 23.7805C17.1765 23.9452 17.006 24.039 16.6877 24.039C16.3648 24.039 16.1318 23.9365 15.9747 23.8162L15.755 24.1767C16.0106 24.3639 16.3335 24.4531 16.6831 24.4531C17.3023 24.4531 17.6611 24.1635 17.6611 23.758C17.6611 23.3837 17.3787 23.1879 16.9121 23.1211L16.6924 23.0895C16.4906 23.0629 16.3289 23.0232 16.3289 22.8804C16.3289 22.7243 16.4814 22.631 16.737 22.631C17.0107 22.631 17.2756 22.7335 17.4054 22.8136L17.6072 22.4393ZM23.0558 22.5284C23.1765 22.3413 23.3515 22.2163 23.6205 22.2163C23.715 22.2163 23.8495 22.2342 23.9527 22.2745L23.8089 22.711C23.7104 22.6707 23.6118 22.6574 23.5173 22.6574C23.2124 22.6574 23.0599 22.8533 23.0599 23.2057V24.3995H22.5938V22.2699H23.0558V22.5284ZM19.6435 22.2699H18.8812V21.6238H18.4099V22.2699H17.9751V22.6932H18.4099V23.6647C18.4099 24.1589 18.6029 24.4531 19.1543 24.4531C19.3566 24.4531 19.5896 24.3909 19.7375 24.2884L19.603 23.8916C19.4639 23.9717 19.3114 24.012 19.1902 24.012C18.9572 24.012 18.8812 23.8692 18.8812 23.6555V22.6932H19.6435V22.2699ZM12.6735 23.0629V24.3995H12.2022V23.2143C12.2022 22.8533 12.0497 22.6529 11.7315 22.6529C11.4219 22.6529 11.2068 22.8492 11.2068 23.2189V24.3995H10.7355V23.2143C10.7355 22.8533 10.5789 22.6529 10.2694 22.6529C9.95057 22.6529 9.7442 22.8492 9.7442 23.2189V24.3995H9.27344V22.2699H9.74009V22.5325C9.91515 22.2831 10.139 22.2163 10.3679 22.2163C10.6955 22.2163 10.9285 22.3591 11.0764 22.5952C11.274 22.2964 11.5564 22.2117 11.83 22.2163C12.3506 22.2209 12.6735 22.5595 12.6735 23.0629Z" fill="#231F20"/>
<path d="M24.5142 18.6516H17.4492V6.03906H24.5142V18.6516Z" fill="#FF5F00"/>
<path d="M17.8979 12.3459C17.8979 9.78736 19.1038 7.5083 20.9817 6.03959C19.6084 4.9656 17.8753 4.32456 15.9917 4.32456C11.5326 4.32456 7.91797 7.91577 7.91797 12.3459C7.91797 16.776 11.5326 20.3672 15.9917 20.3672C17.8753 20.3672 19.6084 19.7262 20.9817 18.6522C19.1038 17.1834 17.8979 14.9044 17.8979 12.3459Z" fill="#EB001B"/>
<path d="M34.0447 12.3459C34.0447 16.776 30.4301 20.3672 25.9709 20.3672C24.0874 20.3672 22.3542 19.7262 20.9805 18.6522C22.8589 17.1834 24.0648 14.9044 24.0648 12.3459C24.0648 9.78736 22.8589 7.5083 20.9805 6.03959C22.3542 4.9656 24.0874 4.32456 25.9709 4.32456C30.4301 4.32456 34.0447 7.91577 34.0447 12.3459Z" fill="#F79E1B"/>
</svg>
