<svg width="42" height="29" viewBox="0 0 42 29" fill="none" xmlns="http://www.w3.org/2000/svg">
<rect x="0.5" y="0.5" width="40.7681" height="27.8399" rx="3.5" fill="white" stroke="#F3F3F3"/>
<path fill-rule="evenodd" clip-rule="evenodd" d="M35.7687 4.33015L27.8088 4.32812C27.8079 4.32812 27.8068 4.32812 27.8068 4.32812C27.8006 4.32812 27.7946 4.32921 27.7886 4.32921C26.6951 4.36234 25.3332 5.2298 25.0851 6.29944L21.3209 22.7734C21.0728 23.8531 21.7476 24.7316 22.8332 24.7477H31.1953C32.2643 24.6954 33.3032 23.838 33.547 22.7805L37.3114 6.30634C37.5634 5.21573 36.8723 4.33015 35.7687 4.33015Z" fill="#01798A"/>
<path fill-rule="evenodd" clip-rule="evenodd" d="M21.3231 22.7755L25.0874 6.30147C25.3354 5.23182 26.6973 4.36437 27.7908 4.33124L24.626 4.32921L18.924 4.32812C17.8274 4.35031 16.4478 5.22385 16.1998 6.30147L12.4344 22.7755C12.1855 23.8551 12.8612 24.7336 13.9461 24.7498H22.8354C21.7498 24.7336 21.075 23.8551 21.3231 22.7755" fill="#024381"/>
<path fill-rule="evenodd" clip-rule="evenodd" d="M12.4312 22.7734L16.1966 6.29945C16.4445 5.22183 17.8242 4.34829 18.9208 4.32611L11.6161 4.32422C10.5134 4.32422 9.09967 5.20777 8.84768 6.29945L5.08227 22.7734C5.05936 22.874 5.04665 22.9725 5.03906 23.0689V23.3746C5.11277 24.1616 5.72046 24.7346 6.59398 24.7477H13.9429C12.858 24.7316 12.1822 23.8531 12.4312 22.7734Z" fill="#DD0228"/>
<path fill-rule="evenodd" clip-rule="evenodd" d="M19.0766 16.3307H19.2149C19.3419 16.3307 19.4273 16.2885 19.4674 16.2051L19.8266 15.6734H20.7886L20.588 16.0231H21.7414L21.5951 16.5589H20.2226C20.0646 16.7941 19.87 16.9047 19.636 16.8916H18.9211L19.0766 16.3307H19.0766ZM18.9182 17.0989H21.4451L21.284 17.681H20.2678L20.1127 18.2428H21.1016L20.9406 18.8248H19.9517L19.7219 19.6551C19.6651 19.7938 19.7399 19.8562 19.9451 19.8421H20.751L20.6017 20.3829H19.0544C18.7611 20.3829 18.6605 20.217 18.7525 19.8843L19.0462 18.8248H18.4141L18.5746 18.2428H19.2068L19.3618 17.681H18.7575L18.9182 17.0989H18.9182ZM22.9509 15.6695L22.9111 16.0102C22.9111 16.0102 23.3878 15.6562 23.8207 15.6562H25.4204L24.8086 17.8466C24.7579 18.097 24.5404 18.2215 24.1561 18.2215H22.343L21.9183 19.7595C21.8938 19.8419 21.9284 19.8842 22.0199 19.8842H22.3766L22.2455 20.3616H21.3385C20.9903 20.3616 20.8455 20.2581 20.903 20.0501L22.1031 15.6695H22.9509H22.9509H22.9509ZM24.305 16.2886H22.8772L22.7064 16.8796C22.7064 16.8796 22.9442 16.7098 23.3416 16.7037C23.7378 16.6976 24.1902 16.7037 24.1902 16.7037L24.305 16.2886ZM23.7897 17.6599C23.8953 17.6741 23.9543 17.6328 23.9614 17.5353L24.0488 17.2237H22.6188L22.4989 17.6599H23.7897ZM22.824 18.3673H23.6483L23.633 18.7201H23.8525C23.9634 18.7201 24.0183 18.6849 24.0183 18.6156L24.0833 18.3874H24.7683L24.6769 18.7201C24.5995 18.9975 24.3944 19.1423 24.061 19.1564H23.6219L23.6199 19.7595C23.6118 19.8561 23.7001 19.9053 23.882 19.9053H24.2947L24.1615 20.3828H23.1716C22.8942 20.3958 22.7581 20.2651 22.761 19.9877L22.824 18.3673Z" fill="white"/>
<path fill-rule="evenodd" clip-rule="evenodd" d="M12.8383 12.7511C12.7265 13.293 12.4673 13.7091 12.0653 14.0046C11.667 14.2951 11.1532 14.4408 10.5242 14.4408C9.93217 14.4408 9.49818 14.2921 9.22122 13.9935C9.02915 13.7814 8.93359 13.512 8.93359 13.1863C8.93359 13.0517 8.94989 12.9069 8.98242 12.7511L9.65265 9.55469H10.6649L10.0038 12.715C9.98345 12.8024 9.97533 12.8838 9.97639 12.9572C9.97533 13.1191 10.016 13.2518 10.0983 13.3552C10.2182 13.5091 10.4128 13.5854 10.6837 13.5854C10.9952 13.5854 11.2518 13.5101 11.451 13.3583C11.6502 13.2075 11.7803 12.9934 11.8387 12.715L12.5019 9.55469H13.509L12.8383 12.7511Z" fill="white"/>
<path fill-rule="evenodd" clip-rule="evenodd" d="M17.0882 11.4961H17.8809L17.26 14.3489H16.4688L17.0882 11.4961ZM17.3369 10.457H18.1367L17.9873 11.1495H17.1875L17.3369 10.457Z" fill="white"/>
<path fill-rule="evenodd" clip-rule="evenodd" d="M18.5865 14.1319C18.3791 13.9359 18.2744 13.6715 18.2734 13.3358C18.2734 13.2785 18.277 13.2132 18.2847 13.1417C18.2923 13.0694 18.302 12.999 18.3156 12.9337C18.4096 12.4703 18.6099 12.1024 18.9183 11.831C19.2262 11.5586 19.5978 11.4219 20.0327 11.4219C20.3889 11.4219 20.6714 11.5204 20.8783 11.7174C21.0851 11.9155 21.1887 12.1828 21.1887 12.5226C21.1887 12.5808 21.1842 12.6482 21.1765 12.7206C21.1674 12.794 21.1563 12.8643 21.1435 12.9337C21.0516 13.39 20.8519 13.7539 20.5434 14.0204C20.235 14.2887 19.8645 14.4223 19.4326 14.4223C19.0749 14.4223 18.7933 14.3259 18.5865 14.1319M20.0972 13.5672C20.2369 13.4174 20.337 13.1902 20.398 12.8877C20.4072 12.8405 20.4152 12.7912 20.4203 12.742C20.4253 12.6937 20.4274 12.6484 20.4274 12.6072C20.4274 12.4313 20.3821 12.2946 20.2912 12.1981C20.2008 12.1006 20.0723 12.0524 19.9062 12.0524C19.6866 12.0524 19.5077 12.1287 19.3675 12.2815C19.2261 12.4344 19.1261 12.6656 19.063 12.9731C19.0544 13.0204 19.0473 13.0676 19.0407 13.1139C19.0357 13.1611 19.0342 13.2053 19.0351 13.2455C19.0351 13.4204 19.0804 13.5552 19.1713 13.6506C19.2617 13.7461 19.3897 13.7934 19.558 13.7934C19.7786 13.7934 19.9574 13.718 20.0972 13.5672Z" fill="white"/>
<path fill-rule="evenodd" clip-rule="evenodd" d="M26.3304 16.3559L26.5215 15.6905H27.488L27.4463 15.9347C27.4463 15.9347 27.9402 15.6905 28.2959 15.6905C28.6517 15.6905 29.491 15.6905 29.491 15.6905L29.301 16.3559H29.113L28.2115 19.4941H28.3995L28.2207 20.1174H28.0326L27.9544 20.3877H27.0184L27.0965 20.1174H25.25L25.4299 19.4941H25.615L26.5173 16.3559H26.3304H26.3304ZM27.3731 16.3552L27.1272 17.2045C27.1272 17.2045 27.548 17.0448 27.9108 16.9996C27.9909 16.703 28.0957 16.3552 28.0957 16.3552H27.3731L27.3731 16.3552ZM27.0143 17.6023L26.7675 18.4919C26.7675 18.4919 27.2339 18.2647 27.5541 18.2456C27.6465 17.9018 27.7391 17.6023 27.7391 17.6023H27.0143V17.6023ZM27.195 19.4934L27.38 18.8481H26.6586L26.4726 19.4934H27.195ZM29.5317 15.6484H30.4404L30.4789 15.98C30.4729 16.0645 30.5236 16.1048 30.6314 16.1048H30.7919L30.6295 16.6666H29.9616C29.7066 16.6797 29.5755 16.5833 29.5633 16.3751L29.5317 15.6484ZM29.2671 16.8535H32.2102L32.0375 17.4566H31.1005L30.9398 18.0174H31.8759L31.7021 18.6196H30.6595L30.4236 18.9725H30.9339L31.0518 19.6791C31.0659 19.7495 31.1289 19.7836 31.2367 19.7836H31.3951L31.2286 20.3655H30.6676C30.3768 20.3797 30.2266 20.2832 30.2143 20.0752L30.079 19.4298L29.6147 20.1164C29.5049 20.3103 29.3361 20.4008 29.1086 20.3867H28.2518L28.4185 19.8047H28.6858C28.7956 19.8047 28.8869 19.7564 28.9693 19.659L29.696 18.6196H28.7589L28.9326 18.0174H29.949L30.1106 17.4566H29.0933L29.2671 16.8535Z" fill="white"/>
<path fill-rule="evenodd" clip-rule="evenodd" d="M13.7682 11.4943H14.4831L14.4013 11.9064L14.5039 11.7888C14.7357 11.5435 15.0172 11.4219 15.3495 11.4219C15.6504 11.4219 15.8673 11.5084 16.0035 11.6822C16.1376 11.8561 16.1742 12.0964 16.1108 12.405L15.7169 14.349H14.9821L15.3378 12.5869C15.3745 12.405 15.3643 12.2693 15.3078 12.1818C15.252 12.0943 15.1452 12.0512 14.9913 12.0512C14.8022 12.0512 14.6432 12.1094 14.5136 12.225C14.3835 12.3416 14.2977 12.5035 14.2555 12.7095L13.9277 14.349H13.1914L13.7682 11.4943Z" fill="white"/>
<path fill-rule="evenodd" clip-rule="evenodd" d="M21.9673 11.4943H22.6828L22.6016 11.9064L22.703 11.7888C22.935 11.5435 23.2175 11.4219 23.5488 11.4219C23.8496 11.4219 24.067 11.5084 24.2021 11.6822C24.3354 11.8561 24.374 12.0964 24.3089 12.405L23.9166 14.349H23.1808L23.5366 12.5869C23.5731 12.405 23.563 12.2693 23.5071 12.1818C23.4491 12.0943 23.3444 12.0512 23.1911 12.0512C23.002 12.0512 22.8435 12.1094 22.7123 12.225C22.5822 12.3416 22.4959 12.5035 22.4553 12.7095L22.126 14.349H21.3906L21.9673 11.4943" fill="white"/>
<path fill-rule="evenodd" clip-rule="evenodd" d="M25.5064 9.72266H27.5837C27.9831 9.72266 28.292 9.81219 28.5044 9.988C28.7158 10.166 28.8216 10.4213 28.8216 10.754V10.764C28.8216 10.8273 28.8174 10.8987 28.8114 10.9761C28.8011 11.0525 28.7878 11.1299 28.7707 11.2103C28.6793 11.6506 28.4668 12.0045 28.1386 12.2729C27.8092 12.5402 27.4191 12.6749 26.9699 12.6749H25.8559L25.5114 14.3466H24.5469L25.5064 9.72266M26.0251 11.8709H26.9491C27.1899 11.8709 27.3809 11.8155 27.5202 11.706C27.6585 11.5954 27.75 11.4266 27.8007 11.1974C27.8088 11.1551 27.8138 11.1169 27.82 11.0818C27.8231 11.0486 27.8271 11.0154 27.8271 10.9833C27.8271 10.8194 27.7683 10.7008 27.6503 10.6264C27.5324 10.5509 27.3475 10.5148 27.0913 10.5148H26.3067L26.0251 11.8709" fill="white"/>
<path fill-rule="evenodd" clip-rule="evenodd" d="M33.1373 14.9017C32.8324 15.543 32.5418 15.9169 32.3712 16.0908C32.2003 16.2627 31.862 16.6628 31.0469 16.6326L31.117 16.1431C31.8029 15.934 32.1739 14.9921 32.3853 14.575L32.1333 11.5031L32.6638 11.4961H33.1089L33.1568 13.4231L33.991 11.4961H34.8356L33.1373 14.9017" fill="white"/>
<path fill-rule="evenodd" clip-rule="evenodd" d="M30.7742 11.7268L30.4386 11.9551C30.088 11.6837 29.7679 11.5158 29.1501 11.7992C28.3085 12.1852 27.6052 15.1456 29.9224 14.1705L30.0545 14.3253L30.9661 14.3484L31.5648 11.6585L30.7742 11.7268M30.2529 13.1976C30.1065 13.6249 29.7794 13.9073 29.5233 13.8269C29.2672 13.7485 29.1757 13.3363 29.3241 12.9081C29.4704 12.4799 29.7996 12.1985 30.0537 12.2789C30.3098 12.3573 30.4022 12.7694 30.2529 13.1976Z" fill="white"/>
</svg>
