<svg width="42" height="29" viewBox="0 0 42 29" fill="none" xmlns="http://www.w3.org/2000/svg">
<rect x="0.5" y="0.5" width="40.7681" height="27.8399" rx="3.5" fill="white" stroke="#F3F3F3"/>
<path d="M18.5464 19.7781H15.7656L17.5049 9.68359H20.2856L18.5464 19.7781Z" fill="#15195A"/>
<path d="M28.6268 9.92976C28.0783 9.72551 27.2084 9.5 26.1326 9.5C23.3865 9.5 21.4527 10.8745 21.4408 12.8396C21.418 14.2895 22.8254 15.0947 23.878 15.5782C24.9538 16.0722 25.3196 16.3946 25.3196 16.8349C25.3086 17.5112 24.4502 17.8229 23.6496 17.8229C22.5394 17.8229 21.9445 17.6622 21.0405 17.2859L20.6743 17.1247L20.2852 19.3906C20.9374 19.6695 22.139 19.917 23.3865 19.9279C26.3043 19.9279 28.2039 18.5747 28.2264 16.4805C28.2375 15.3314 27.4944 14.4509 25.8922 13.7314C24.9196 13.2695 24.324 12.9581 24.324 12.4855C24.3354 12.0559 24.8278 11.6158 25.9257 11.6158C26.8297 11.5943 27.4939 11.7982 27.9971 12.0023L28.2486 12.1095L28.6268 9.92976Z" fill="#15195A"/>
<path fill-rule="evenodd" clip-rule="evenodd" d="M33.5996 9.68359H35.7505L37.994 19.7779H35.4192C35.4192 19.7779 35.1672 18.6181 35.0874 18.2637H31.5171C31.4138 18.532 30.9334 19.7779 30.9334 19.7779H28.0156L32.1462 10.5211C32.4323 9.866 32.9363 9.68359 33.5996 9.68359ZM33.4278 13.3777C33.4278 13.3777 32.5466 15.6222 32.3176 16.2021H34.629C34.5146 15.6974 33.988 13.2811 33.988 13.2811L33.7937 12.4113C33.7118 12.6353 33.5935 12.9432 33.5137 13.1509C33.4595 13.2917 33.4231 13.3864 33.4278 13.3777Z" fill="#15195A"/>
<path fill-rule="evenodd" clip-rule="evenodd" d="M3.71765 9.68359H8.19169C8.79812 9.70486 9.29021 9.88741 9.45033 10.5321L10.4229 15.1714C10.422 15.169 10.421 15.1666 10.4201 15.1641C10.4208 15.1664 10.4215 15.1687 10.4222 15.171L10.7198 16.5671L13.4432 9.68362H16.3836L12.0127 19.7674H9.07205L6.59338 10.9957C5.73842 10.5266 4.76272 10.1494 3.67188 9.88756L3.71765 9.68359Z" fill="#15195A"/>
</svg>
